<?xml version="1.0" encoding="UTF-8"?>
<svg id="Capa_1" data-name="Capa 1" xmlns="http://www.w3.org/2000/svg" viewBox="0 0 425.2 269.55">
  <defs>
    <style>
      .cls-1 {
        fill: #005cb9;
      }

      .cls-2 {
        fill: #c40d3c;
      }

      .cls-3 {
        fill: #0083c1;
      }
    </style>
  </defs>
  <g>
    <path class="cls-3" d="M249.21,51.38c-27.01-.51-49.33,20.97-49.84,47.99-.19,10.31-8.72,18.52-19.04,18.33-10.31-.19-18.52-8.72-18.33-19.04.19-10.32,8.72-18.52,19.04-18.33l.06-3.36.06-3.36.06-3.36.07-3.36.06-3.36.06-3.36.06-3.36.06-3.36.07-3.36c-27.01-.51-49.33,20.98-49.84,47.98-.51,27.02,20.97,49.33,47.99,49.85,27.01.51,49.32-20.97,49.84-47.99.19-10.31,8.72-18.52,19.04-18.33,10.31.19,18.53,8.72,18.33,19.04-.19,10.31-8.72,18.52-19.04,18.33l-.06,3.36-.07,3.36-.06,3.36-.06,3.36-.06,3.36-.06,3.36-.07,3.36-.06,3.36-.07,3.36c27.01.51,49.33-20.98,49.85-47.99.51-27.01-20.97-49.32-47.99-49.83Z"/>
    <path class="cls-1" d="M216.37.01c-32.53-.61-59.42,25.27-60.05,57.81-.61,32.53,25.28,59.42,57.81,60.04,12.43.24,22.32,10.5,22.08,22.93-.24,12.43-10.5,22.32-22.93,22.09-10.09-.2-18.57-7.07-21.26-16.27-4.03.85-8.67,2.07-20.54.43-7.05-1.37-11.83-3.83-16.7-6.49.08,31.96,25.71,58.14,57.81,58.75,32.55.62,59.43-25.26,60.04-57.8.62-32.55-25.26-59.43-57.81-60.04-12.43-.24-22.31-10.5-22.08-22.93.24-12.43,10.51-22.32,22.94-22.08,10.09.19,18.52,7.06,21.19,16.27,3.41-.93,10.18-1.52,16.4-1.05,9.8.86,18.79,5.87,20.92,7.22-.02-32-25.67-58.26-57.81-58.87Z"/>
  </g>
  <g>
    <path class="cls-2" d="M58.2,221.52l-3.97,11.32h-28.44c-1.49,0-2.63.3-3.43.9-.44.31-.92.92-1.44,1.79-.08.12-.12.41-.12.89s-.02.72-.06.72c-.08.19-.12.41-.12.66,0,1.19.9,1.79,2.71,1.79h21.87c2.45,0,4.45.58,6,1.72,1.54,1.15,2.32,2.79,2.32,4.93,0,1.12-.24,2.35-.72,3.68-1.2,3.26-2.98,8.01-5.3,14.25-.64,1.81-1.41,3.09-2.29,3.86-1.08,1-2.61,1.51-4.58,1.51H0l4.04-11.33h28.38c2.57,0,4.21-.9,4.94-2.69.6-1.56.98-2.29,1.14-2.2.04-.17.06-.33.06-.49,0-1.27-1.03-1.9-3.07-1.9H13.62c-2.41,0-4.36-.56-5.84-1.68-1.61-1.2-2.41-2.88-2.41-5.04,0-1.12.22-2.32.66-3.6,3.05-8.84,4.62-13.42,4.7-13.74.88-3.56,3.17-5.33,6.87-5.33h40.61Z"/>
    <path class="cls-2" d="M113.7,234.23l-10.9,30.86c-.56,1.57-1.59,2.75-3.07,3.55-1.16.61-2.43.91-3.79.91h-34.89c-4.82,0-7.23-2.07-7.23-6.21,0-1.84.46-4,1.39-6.44l1.03-2.53,9.88-28.32c.52-1.57,1.53-2.75,3.01-3.55,1.2-.64,2.49-.96,3.86-.96h34.89c4.78,0,7.17,2.07,7.17,6.2,0,1.73-.45,3.9-1.33,6.5ZM99.65,236.59c.16-.4.25-.81.25-1.21,0-1.69-.73-2.53-2.17-2.53h-17.47c-2.33,0-3.92,1.2-4.76,3.62l-6.26,18.01c-.16.4-.24.83-.24,1.26,0,1.65.72,2.47,2.17,2.47h17.47c1.44,0,2.55-.37,3.31-1.09.48-.48.94-1.31,1.39-2.46l6.33-18.08Z"/>
    <path class="cls-2" d="M154,238.88c.28-.4-1.02,3.33-3.92,11.2h-24.16l-6.87,19.46h-13.14l16.99-48.15h37.24l-3.92,11.33h-24.22l-2.17,6.15h24.16Z"/>
    <path class="cls-2" d="M173.22,269.48l-13.14.07,12.96-36.7h-19.76l4.09-11.45h52l-4.04,11.45h-19.16l-12.95,36.7v-.07Z"/>
    <path class="cls-2" d="M257.88,221.52l-3.98,11.32h-28.43c-1.49,0-2.63.3-3.44.9-.45.31-.92.92-1.44,1.79-.09.12-.12.41-.12.89s-.02.72-.06.72c-.08.19-.12.41-.12.66,0,1.19.9,1.79,2.71,1.79h21.87c2.45,0,4.44.58,6,1.72,1.54,1.15,2.32,2.79,2.32,4.93,0,1.12-.24,2.35-.73,3.68-1.2,3.26-2.97,8.01-5.3,14.25-.65,1.81-1.41,3.09-2.29,3.86-1.09,1-2.61,1.51-4.58,1.51h-40.61l4.04-11.33h28.38c2.57,0,4.22-.9,4.94-2.69.6-1.56.98-2.29,1.15-2.2.04-.17.06-.33.06-.49,0-1.27-1.03-1.9-3.07-1.9h-21.87c-2.42,0-4.37-.56-5.85-1.68-1.61-1.2-2.4-2.88-2.4-5.04,0-1.12.21-2.32.66-3.6,3.05-8.84,4.62-13.42,4.7-13.74.88-3.56,3.17-5.33,6.87-5.33h40.61Z"/>
    <path class="cls-2" d="M318.79,221.4l-17.11,48.15h-13.13l6.92-19.46h-24.16l-6.88,19.46h-13.13l17.05-48.15h13.2l-6.08,17.53h24.04l6.2-17.53h13.08Z"/>
    <path class="cls-2" d="M369.89,234.23l-10.9,30.86c-.56,1.57-1.59,2.75-3.08,3.55-1.16.61-2.43.91-3.79.91h-34.89c-4.82,0-7.22-2.07-7.22-6.21,0-1.84.45-4,1.39-6.44l1.02-2.53,9.89-28.32c.52-1.57,1.52-2.75,3.01-3.55,1.2-.64,2.49-.96,3.85-.96h34.89c4.78,0,7.18,2.07,7.18,6.2,0,1.73-.44,3.9-1.33,6.5ZM355.85,236.59c.16-.4.25-.81.25-1.21,0-1.69-.73-2.53-2.17-2.53h-17.47c-2.33,0-3.92,1.2-4.75,3.62l-6.27,18.01c-.16.4-.24.83-.24,1.26,0,1.65.71,2.47,2.16,2.47h17.47c1.45,0,2.56-.37,3.31-1.09.49-.48.95-1.31,1.39-2.46l6.32-18.08Z"/>
    <path class="cls-2" d="M424.48,231.7l-4.58,12.84c-1.13,3.13-3.07,4.98-5.84,5.54h-32.05l-6.93,19.46-13.07-.07,16.99-48.08h37.9c2.4,0,4.39.58,5.96,1.72,1.56,1.15,2.34,2.78,2.34,4.91,0,1.12-.24,2.35-.72,3.67ZM410.13,235.14c.04-.16.06-.32.06-.48,0-1.29-1-1.93-3.01-1.93h-19.1l-2.17,6.15h19.53c1.41,0,2.41-.16,3.01-.49.48-.28.84-.8,1.08-1.57l.6-1.68Z"/>
  </g>
</svg>